# xmcd
#
# Track frame offsets:
#	150
#	15300
#	28676
#	43753
#	53517
#	68610
#	81538
#	100755
#	118761
#	135872
#	150367
#	164781
#	180586
#	195306
#	209496
#	223149
#
# Disc length: 3173 seconds
#
# Revision: 0
# Processed by: cddbd v1.5.2PL0 Copyright (c) Steve Scherf et al.
# Submitted via: audiograbber 1.83.01
#
DISCID=d30c6310
DTITLE=Joan Baez - Ihre Schönsten Lieder (LP)
DYEAR=1900
DGENRE=Ballad
TTITLE0=The Night They Drove Old Dixie Down
TTITLE1=Help Me Make It Through The Night
TTITLE2=It´s All Over Now Baby Blue
TTITLE3=If You Were A Carpenter
TTITLE4=Put Your Hand In The Hand
TTITLE5=House Of The Rising Sun
TTITLE6=Will The Circle Be Unbroken
TTITLE7=Sag Mir Wo Die Blumen Sind
TTITLE8=Let It Be
TTITLE9=Farewell Angelina
TTITLE10=There But For Fortune
TTITLE11=Love Is Just A Four-Letter Word
TTITLE12=It Ain´t Me Baby
TTITLE13=Donna Donna
TTITLE14=Colours
TTITLE15=We Shall Overcome
EXTD=
EXTT0=
EXTT1=
EXTT2=
EXTT3=
EXTT4=
EXTT5=
EXTT6=
EXTT7=
EXTT8=
EXTT9=
EXTT10=
EXTT11=
EXTT12=
EXTT13=
EXTT14=
EXTT15=
PLAYORDER=
